<svg xmlns="http://www.w3.org/2000/svg" xmlns:xlink="http://www.w3.org/1999/xlink" width="1306.405" height="1080.116" viewBox="0 0 1306.405 1080.116"><defs><style>.a{opacity:0.39;fill:url(#a);}.b{opacity:0.62;fill:url(#b);}.c{fill:url(#c);}</style><linearGradient id="a" x1="1.095" y1="1.063" x2="0.5" gradientUnits="objectBoundingBox"><stop offset="0" stop-color="#491968"/><stop offset="1" stop-color="#b644ff"/></linearGradient><linearGradient id="b" x1="1.095" y1="1.063" x2="0.5" gradientUnits="objectBoundingBox"><stop offset="0" stop-color="#852ebd"/><stop offset="1" stop-color="#b644ff"/></linearGradient><linearGradient id="c" x1="1.095" y1="-0.063" x2="0.5" y2="1" gradientUnits="objectBoundingBox"><stop offset="0" stop-color="#a61aff"/><stop offset="1" stop-color="#43175f"/></linearGradient></defs><g transform="translate(0 0)"><path class="a" d="M-758.757,237.438c-2.422,0-4.842-.018-7.192-.05-16.664-.234-33.617-1.259-50.388-3.045-16.911-1.8-33.75-4.389-50.048-7.691a482.336,482.336,0,0,1-48.06-12.281,390.767,390.767,0,0,1-44.425-16.814c-29.206-13.237-53.213-29.051-71.355-47-19.627-19.421-32.092-41.108-37.047-64.458a121.338,121.338,0,0,1-2.532-20.8,160.47,160.47,0,0,1,.767-22c1.428-14.2,4.59-29.642,9.668-47.2,9.476-32.766,24.092-67.622,39.565-104.526,12.164-29.012,24.743-59.01,35.314-89.322,5.71-16.371,10.313-31.312,14.075-45.678a394.513,394.513,0,0,0,9.333-45.841c1.531-11.56,2.507-23.654,2.9-35.946H128.264c17.185,19.864,30.429,37.59,40.49,54.191a220.961,220.961,0,0,1,14.167,27.275,160,160,0,0,1,9.094,27.694c5.984,25.341,4.878,52.45-3.288,80.574a227.5,227.5,0,0,1-16.2,40.223,297.461,297.461,0,0,1-24.213,39.044A372.539,372.539,0,0,1,117.352-19.2,436.019,436.019,0,0,1,80.9,14.925,471.331,471.331,0,0,1,40.213,45.316a468.44,468.44,0,0,1-43.646,25.8C-13.792,76.5-24.686,81.634-35.811,86.379-46.407,90.9-57.565,95.214-68.974,99.2a686.922,686.922,0,0,1-68.168,19.728c-20.674,4.925-43.5,9.547-69.775,14.133-23.4,4.084-47.261,7.751-70.333,11.3l-.029,0h-.007c-36.734,5.646-74.719,11.485-111.108,19.065-40.179,8.369-79.931,19.14-118.373,29.556-20.238,5.484-41.164,11.154-61.8,16.374-23.11,5.844-43.437,10.5-62.143,14.232-22.43,4.475-43.092,7.76-63.166,10.041-10.873,1.236-21.7,2.181-32.18,2.809-10.993.659-21.992.993-32.693.993h0Z" transform="translate(1069.904 325.216)"/></g><g transform="translate(359.451 0)"><path class="b" d="M23.26,538.763h0c-2.6,0-5.237-.092-7.829-.274a121.349,121.349,0,0,1-20.694-3.3,160.5,160.5,0,0,1-20.935-6.8c-13.263-5.289-27.233-12.585-42.708-22.3-28.872-18.133-58.339-41.779-89.535-66.814l-.037-.03c-24.534-19.69-49.9-40.049-76.126-58.566-14.161-10-27.255-18.544-40.028-26.12a394.444,394.444,0,0,0-41.492-21.606c-63.019-27.461-130.531-34.053-195.82-40.427-33.717-3.292-65.562-6.4-96-12.237a360.53,360.53,0,0,1-44.074-11.1c-7.2-2.344-14.16-4.936-20.7-7.7-6.834-2.892-13.45-6.082-19.665-9.481a210.54,210.54,0,0,1-35.228-24.423,249.9,249.9,0,0,1-30.808-31.594,313.021,313.021,0,0,1-26.5-37.924,398.427,398.427,0,0,1-22.3-43.414C-820.359,84.83-831.27,51.2-839.642,14.7A793.021,793.021,0,0,1-856.585-97.142a858.532,858.532,0,0,1-1.56-117.142c2.323-40.338,7.733-78.106,16.079-112.253a441.327,441.327,0,0,1,15.7-51.116,336.341,336.341,0,0,1,21.356-46.08A258.623,258.623,0,0,1-778.424-462.5H87.5V520.7a148.685,148.685,0,0,1-31.572,13.361A118.743,118.743,0,0,1,23.26,538.763Z" transform="translate(859.453 462.5)"/></g><g transform="translate(248)"><path class="c" d="M-524.264,143.616h-.024c-37.489,0-78.315-4.608-121.343-13.7A849.13,849.13,0,0,1-767.721,93.963,793.044,793.044,0,0,1-870.556,46.85c-32.787-18.111-62.1-37.869-87.135-58.723a398.493,398.493,0,0,1-35.588-33.4A312.91,312.91,0,0,1-1022.43-81.2a249.952,249.952,0,0,1-21.878-38.322,210.571,210.571,0,0,1-13.767-40.6c-1.551-6.9-2.794-14.135-3.693-21.516-.857-7.044-1.429-14.452-1.7-22.018a360.653,360.653,0,0,1,1.475-45.427c2.781-30.865,8.569-62.333,14.7-95.648v-.005c11.868-64.52,24.141-131.235,15.114-199.378a394.453,394.453,0,0,0-9.332-45.84c-3.763-14.371-8.367-29.312-14.075-45.678-10.572-30.313-23.148-60.306-35.31-89.312l0-.009,0-.005c-15.473-36.9-30.087-71.754-39.564-104.521-5.078-17.558-8.24-33-9.669-47.2a160.465,160.465,0,0,1-.766-22,121.385,121.385,0,0,1,2.532-20.8,113.065,113.065,0,0,1,5.053-17.027h981.656c13.532,4.423,26.683,9.257,39.089,14.37,10.237,4.219,20.321,8.778,29.975,13.548v548.074c-10.336,11.731-19.578,22.776-28.255,33.767-11.091,14.053-20.817,27.461-29.733,40.993-36.033,54.313-61.658,115.056-86.439,173.8l-.009.021c-9.03,21.405-17.559,41.623-26.556,61.5-10.177,22.487-19.148,40.535-28.231,56.8a372.2,372.2,0,0,1-32.447,49.441,253.257,253.257,0,0,1-18.6,21.137,207.828,207.828,0,0,1-20.609,18.309,206.872,206.872,0,0,1-36.549,22.009,249.485,249.485,0,0,1-41.213,15.014,316.859,316.859,0,0,1-45.029,8.591A407.141,407.141,0,0,1-524.264,143.616Z" transform="translate(1141 936.5)"/></g></svg>